# xmcd
#
# Track frame offsets:
#	150
#	14444
#	28805
#	39806
#	52893
#	63979
#	78378
#	92762
#	108369
#	120001
#	134071
#	147938
#	160358
#	175639
#	188656
#	200256
#	212316
#	224186
#	235958
#	249294
#	272852
#
# Disc length: 3919 seconds
# Revision: 0
# Processed by: cddbd v1.5.2PL0 Copyright (c) Steve Scherf et al.
# Submitted via: dBpowerAMP V12.0
#
DISCID=200f4d15
DTITLE=Johnny Sayles - The Johnny Sayles Story
DYEAR=1900
DGENRE=
TTITLE0=You Did Me Wrong
TTITLE1=You Did Me Wrong (alternate take)
TTITLE2=Don't Turn Your Back On Me
TTITLE3=I Got a Whole Lots of Loving
TTITLE4=I'm Satisified
TTITLE5=Tell Me Where I Stand
TTITLE6=Got You On My Mind
TTITLE7=The Girl I Love w. The Duetts
TTITLE8=You Told a Lie
TTITLE9=Nothing But Hard Rocks
TTITLE10=The Concentration
TTITLE11=Anything For You
TTITLE12=Deep Down in My Heart w. The Duetts
TTITLE13=Never Let Me Go w. The Duetts
TTITLE14=My Love's a Monster w. The Duetts
TTITLE15=I'm Just What She Needs
TTITLE16=Lilly Mae
TTITLE17=I Can't Get Enough (Of Your Love)
TTITLE18=Hold My Own Baby
TTITLE19=Food Stamps - pt. #1
TTITLE20=Food Stamps - pt. #2
EXTD=
EXTT0=
EXTT1=
EXTT2=
EXTT3=
EXTT4=
EXTT5=
EXTT6=
EXTT7=
EXTT8=
EXTT9=
EXTT10=
EXTT11=
EXTT12=
EXTT13=
EXTT14=
EXTT15=
EXTT16=
EXTT17=
EXTT18=
EXTT19=
EXTT20=
PLAYORDER=
